<svg width="20" height="20" viewBox="0 0 20 20" fill="none" xmlns="http://www.w3.org/2000/svg">
<path d="M14.4422 16.8661C13.5807 17.7016 12.6401 17.5697 11.7346 17.1739C10.7764 16.7693 9.89729 16.7517 8.88633 17.1739C7.62043 17.7192 6.95232 17.5609 6.1963 16.8661C1.9063 12.4421 2.53925 5.70496 7.40945 5.45869C8.59623 5.52026 9.42258 6.10954 10.1171 6.16231C11.1544 5.95122 12.1478 5.34436 13.2554 5.42351C14.5829 5.52906 15.5851 6.05677 16.2444 7.00665C13.5016 8.65135 14.1521 12.2662 16.6663 13.2776C16.1653 14.5969 15.5147 15.9074 14.4334 16.8748L14.4422 16.8661ZM10.0292 5.40592C9.89729 3.4446 11.4885 1.82628 13.317 1.66797C13.5719 3.93713 11.2599 5.6258 10.0292 5.40592Z" fill="black"/>
</svg>
