<svg width="17" height="13" viewBox="0 0 17 13" fill="none" xmlns="http://www.w3.org/2000/svg">
<g clip-path="url(#clip0_206_1290)">
<path d="M0 0H17V13H0V0Z" fill="#DE2910"/>
<path d="M1.8 5L3 1L4.2 5L1 2.55556H5L1.8 5Z" fill="#FFDE00"/>
<path d="M6.75201 1.30622L5.74667 1.56893L6.44802 0.788928L6.33185 1.79725L5.8252 0.935104L6.75201 1.30622Z" fill="#FFDE00"/>
<path d="M7.96193 2.65814L6.93079 2.50481L7.87888 2.06391L7.38485 2.94408L7.24644 1.95371L7.96193 2.65814Z" fill="#FFDE00"/>
<path d="M8.01403 5.08737L7.13503 4.51858L8.17607 4.50967L7.37334 5.10887L7.6434 4.14602L8.01403 5.08737Z" fill="#FFDE00"/>
<path d="M5.89819 6.47505L5.30878 5.60674L6.26872 6.00314L5.30126 6.24592L5.91882 5.45939L5.89819 6.47505Z" fill="#FFDE00"/>
</g>
<defs>
<clipPath id="clip0_206_1290">
<rect width="17" height="13" fill="white"/>
</clipPath>
</defs>
</svg>
