<svg width="17" height="13" viewBox="0 0 17 13" fill="none" xmlns="http://www.w3.org/2000/svg">
<g clip-path="url(#clip0_206_1291)">
<path d="M0 0H17V13H0V0Z" fill="#012169"/>
<path d="M1.99219 0L8.47344 4.90208L14.9281 0H17V1.67917L10.625 6.52708L17 11.3479V13H14.875L8.5 8.15208L2.15156 13H0V11.375L6.34844 6.55417L0 1.73333V0H1.99219Z" fill="white"/>
<path d="M11.2625 7.61042L17 11.9167V13L9.80156 7.61042H11.2625ZM6.375 8.15208L6.53438 9.1L1.43438 13H0L6.375 8.15208ZM17 0V0.08125L10.3859 5.17292L10.4391 3.98125L15.6719 0H17ZM0 0L6.34844 4.76667H4.75469L0 1.1375V0Z" fill="#C8102E"/>
<path d="M6.40156 0V13H10.6516V0H6.40156ZM0 4.33333V8.66667H17V4.33333H0Z" fill="white"/>
<path d="M0 5.22708V7.82708H17V5.22708H0ZM7.25156 0V13H9.80156V0H7.25156Z" fill="#C8102E"/>
</g>
<defs>
<clipPath id="clip0_206_1291">
<rect width="17" height="13" fill="white"/>
</clipPath>
</defs>
</svg>
