<svg width="20" height="20" viewBox="0 0 20 20" fill="none" xmlns="http://www.w3.org/2000/svg">
<path d="M18.1716 8.36922H17.5003V8.33464H10.0003V11.668H14.7099C14.0228 13.6084 12.1766 15.0013 10.0003 15.0013C7.23908 15.0013 5.00033 12.7626 5.00033 10.0013C5.00033 7.24005 7.23908 5.0013 10.0003 5.0013C11.2749 5.0013 12.4345 5.48214 13.3174 6.26755L15.6745 3.91047C14.1862 2.52339 12.1953 1.66797 10.0003 1.66797C5.39824 1.66797 1.66699 5.39922 1.66699 10.0013C1.66699 14.6034 5.39824 18.3346 10.0003 18.3346C14.6024 18.3346 18.3337 14.6034 18.3337 10.0013C18.3337 9.44255 18.2762 8.89714 18.1716 8.36922Z" fill="#FFC107"/>
<path d="M2.62793 6.12255L5.36585 8.13047C6.10668 6.2963 7.90085 5.0013 10.0004 5.0013C11.275 5.0013 12.4346 5.48214 13.3175 6.26755L15.6746 3.91047C14.1863 2.52339 12.1954 1.66797 10.0004 1.66797C6.7996 1.66797 4.02376 3.47505 2.62793 6.12255Z" fill="#FF3D00"/>
<path d="M9.9998 18.3336C12.1523 18.3336 14.1081 17.5099 15.5869 16.1703L13.0077 13.9878C12.1431 14.6457 11.0863 15.0015 9.9998 15.0003C7.8323 15.0003 5.99189 13.6182 5.29855 11.6895L2.58105 13.7832C3.96022 16.482 6.76105 18.3336 9.9998 18.3336Z" fill="#4CAF50"/>
<path d="M18.1712 8.36661H17.5V8.33203H10V11.6654H14.7096C14.3809 12.5889 13.7889 13.3959 13.0067 13.9866L13.0079 13.9858L15.5871 16.1683C15.4046 16.3341 18.3333 14.1654 18.3333 9.9987C18.3333 9.43995 18.2758 8.89453 18.1712 8.36661Z" fill="#1976D2"/>
</svg>
