<svg width="99" height="22" viewBox="0 0 99 22" fill="none" xmlns="http://www.w3.org/2000/svg">
<path d="M41.76 19.24C40.8427 19.24 40.0347 19.0533 39.336 18.68C38.6427 18.3067 38.0987 17.7813 37.704 17.104C37.3147 16.4267 37.12 15.632 37.12 14.72V7.496L39.072 7.48V14.672C39.072 15.104 39.144 15.4907 39.288 15.832C39.4373 16.1733 39.6373 16.464 39.888 16.704C40.1387 16.9387 40.4267 17.1173 40.752 17.24C41.0773 17.3627 41.4133 17.424 41.76 17.424C42.1173 17.424 42.456 17.3627 42.776 17.24C43.1013 17.112 43.3893 16.9307 43.64 16.696C43.8907 16.456 44.088 16.1653 44.232 15.824C44.376 15.4827 44.448 15.0987 44.448 14.672V7.48H46.4V14.72C46.4 15.632 46.2027 16.4267 45.808 17.104C45.4187 17.7813 44.8747 18.3067 44.176 18.68C43.4827 19.0533 42.6773 19.24 41.76 19.24ZM47.9956 19V18.736L52.5716 12.048H48.4596V10.36H55.5716V10.632L51.0116 17.312H55.3796V19H47.9956ZM59.458 19V9.288H55.73V7.48H65.114V9.288H61.386V19H59.458ZM69.0879 19.24C68.2239 19.24 67.4692 19.0453 66.8239 18.656C66.1785 18.2667 65.6772 17.7307 65.3199 17.048C64.9679 16.36 64.7919 15.5707 64.7919 14.68C64.7919 13.7733 64.9732 12.9787 65.3359 12.296C65.6985 11.6133 66.2025 11.08 66.8479 10.696C67.4932 10.312 68.2399 10.12 69.0879 10.12C69.9572 10.12 70.7145 10.3147 71.3599 10.704C72.0052 11.0933 72.5065 11.632 72.8639 12.32C73.2212 13.0027 73.3999 13.7893 73.3999 14.68C73.3999 15.576 73.2185 16.368 72.8559 17.056C72.4985 17.7387 71.9972 18.2747 71.3519 18.664C70.7065 19.048 69.9519 19.24 69.0879 19.24ZM69.0879 17.432C69.8559 17.432 70.4265 17.176 70.7999 16.664C71.1732 16.152 71.3599 15.4907 71.3599 14.68C71.3599 13.8427 71.1705 13.176 70.7919 12.68C70.4132 12.1787 69.8452 11.928 69.0879 11.928C68.5705 11.928 68.1439 12.0453 67.8079 12.28C67.4772 12.5093 67.2319 12.832 67.0719 13.248C66.9119 13.6587 66.8319 14.136 66.8319 14.68C66.8319 15.5173 67.0212 16.1867 67.3999 16.688C67.7839 17.184 68.3465 17.432 69.0879 17.432ZM78.5625 19.248C77.9225 19.248 77.3945 19.1413 76.9785 18.928C76.5625 18.7147 76.2318 18.4427 75.9865 18.112C75.7412 17.7813 75.5598 17.4293 75.4425 17.056C75.3252 16.6827 75.2478 16.3307 75.2105 16C75.1785 15.664 75.1625 15.392 75.1625 15.184V10.36H77.1145V14.52C77.1145 14.7867 77.1332 15.088 77.1705 15.424C77.2078 15.7547 77.2932 16.0747 77.4265 16.384C77.5652 16.688 77.7678 16.9387 78.0345 17.136C78.3065 17.3333 78.6718 17.432 79.1305 17.432C79.3758 17.432 79.6185 17.392 79.8585 17.312C80.0985 17.232 80.3145 17.096 80.5065 16.904C80.7038 16.7067 80.8612 16.4373 80.9785 16.096C81.0958 15.7547 81.1545 15.3227 81.1545 14.8L82.2985 15.288C82.2985 16.024 82.1545 16.6907 81.8665 17.288C81.5838 17.8853 81.1652 18.3627 80.6105 18.72C80.0558 19.072 79.3732 19.248 78.5625 19.248ZM81.3865 19V16.32H81.1545V10.36H83.0905V19H81.3865ZM85.4981 19V10.36H87.2021V12.464L86.9941 12.192C87.1008 11.904 87.2421 11.6427 87.4181 11.408C87.5995 11.168 87.8155 10.9707 88.0661 10.816C88.2795 10.672 88.5141 10.56 88.7701 10.48C89.0315 10.3947 89.2981 10.344 89.5701 10.328C89.8421 10.3067 90.1061 10.3173 90.3621 10.36V12.16C90.1061 12.0853 89.8101 12.0613 89.4741 12.088C89.1435 12.1147 88.8448 12.208 88.5781 12.368C88.3115 12.512 88.0928 12.696 87.9221 12.92C87.7568 13.144 87.6341 13.4 87.5541 13.688C87.4741 13.9707 87.4341 14.2773 87.4341 14.608V19H85.4981ZM95.0722 19.24C94.0056 19.24 93.1389 19 92.4722 18.52C91.8056 18.04 91.4002 17.3653 91.2562 16.496L93.2242 16.192C93.3256 16.6187 93.5496 16.9547 93.8962 17.2C94.2429 17.4453 94.6802 17.568 95.2082 17.568C95.6722 17.568 96.0296 17.4773 96.2802 17.296C96.5362 17.1093 96.6642 16.856 96.6642 16.536C96.6642 16.3387 96.6162 16.1813 96.5202 16.064C96.4296 15.9413 96.2269 15.824 95.9122 15.712C95.5976 15.6 95.1149 15.4587 94.4642 15.288C93.7389 15.096 93.1629 14.8907 92.7362 14.672C92.3096 14.448 92.0029 14.184 91.8162 13.88C91.6296 13.576 91.5362 13.208 91.5362 12.776C91.5362 12.2373 91.6776 11.768 91.9602 11.368C92.2429 10.968 92.6376 10.6613 93.1442 10.448C93.6509 10.2293 94.2482 10.12 94.9362 10.12C95.6082 10.12 96.2029 10.224 96.7202 10.432C97.2429 10.64 97.6642 10.936 97.9842 11.32C98.3042 11.704 98.5016 12.1547 98.5762 12.672L96.6082 13.024C96.5602 12.656 96.3922 12.3653 96.1042 12.152C95.8216 11.9387 95.4429 11.8187 94.9682 11.792C94.5149 11.7653 94.1496 11.8347 93.8722 12C93.5949 12.16 93.4562 12.3867 93.4562 12.68C93.4562 12.8453 93.5122 12.9867 93.6242 13.104C93.7362 13.2213 93.9602 13.3387 94.2962 13.456C94.6376 13.5733 95.1442 13.7173 95.8162 13.888C96.5042 14.064 97.0536 14.2667 97.4642 14.496C97.8802 14.72 98.1789 14.9893 98.3602 15.304C98.5469 15.6187 98.6402 16 98.6402 16.448C98.6402 17.3173 98.3229 18 97.6882 18.496C97.0589 18.992 96.1869 19.24 95.0722 19.24Z" fill="#328AEE"/>
<path d="M5.95171 9.34563C5.87631 9.44891 5.89205 9.53 5.94426 9.62389C6.03292 9.78521 6.10086 9.95933 6.2351 10.0899C6.2699 10.1241 6.30802 10.1676 6.35028 10.177C6.59969 10.2299 6.8027 10.3725 7.00405 10.521C7.01234 10.5269 7.02394 10.5269 7.04549 10.5329C7.07366 10.4996 7.10597 10.4621 7.13746 10.4245C7.18884 10.3639 7.24601 10.3716 7.2949 10.4211C7.34876 10.4766 7.39599 10.5389 7.38439 10.6294C7.37445 10.707 7.37859 10.7873 7.36699 10.8641C7.36202 10.9008 7.34627 10.9503 7.31893 10.9665C7.19712 11.0416 7.22364 11.1415 7.26258 11.2465C7.27004 11.2678 7.27915 11.2883 7.28827 11.3114C7.50537 11.3668 7.72246 11.4215 7.93873 11.4769C7.99176 11.4906 8.04811 11.4991 8.09617 11.5247C8.25941 11.6109 8.42596 11.5922 8.59334 11.5486C8.65714 11.5324 8.72095 11.5145 8.78309 11.4932C9.02753 11.4095 9.25789 11.4317 9.47416 11.5811C9.51062 11.6058 9.55122 11.6246 9.59596 11.6494C9.73268 11.5555 9.88764 11.5367 10.0476 11.5572C10.2083 11.5777 10.3359 11.6579 10.4188 11.8056C10.4486 11.8593 10.4842 11.9114 10.5066 11.9677C10.5315 12.0326 10.5746 12.0616 10.635 12.0855C10.9391 12.2076 11.075 12.4107 11.0817 12.7428C11.0858 12.9433 11.1173 13.1337 11.2515 13.295C11.3037 13.3582 11.3477 13.4375 11.3684 13.5169C11.4935 13.9889 11.8365 14.2194 12.2484 14.3773C12.3155 14.4029 12.3876 14.4174 12.4489 14.4524C12.7397 14.6146 13.0007 14.5207 13.222 14.3244C13.4954 14.0811 13.7465 13.8122 13.9984 13.5451C14.1045 13.4324 14.1923 13.301 14.2785 13.1704C14.3166 13.1132 14.3365 13.0381 14.3481 12.9681C14.3746 12.8136 14.4036 12.782 14.5602 12.7641C14.7044 12.7479 14.8436 12.7581 14.9778 12.8238C15.0168 12.8426 15.0723 12.8435 15.1154 12.8332C15.2206 12.8085 15.3142 12.8255 15.3913 12.899C15.4949 12.9988 15.6167 13.0304 15.7526 13.0261C15.9871 13.0193 16.2091 13.0577 16.4122 13.1926C16.4842 13.2404 16.5779 13.2523 16.6566 13.2924C16.8372 13.3855 16.969 13.5161 16.9748 13.744C16.9764 13.8131 17.0328 13.8814 16.9715 13.9505C16.906 14.0248 16.8256 14.0692 16.7287 14.0803C16.7071 14.0828 16.6848 14.0905 16.6632 14.0871C16.4809 14.0606 16.3517 14.169 16.2191 14.2689C16.118 14.3449 16.0219 14.4294 15.9175 14.5002C15.8462 14.5489 15.794 14.6043 15.76 14.6871C15.7302 14.758 15.6805 14.822 15.6324 14.8826C15.4891 15.061 15.3432 15.2368 15.1957 15.4109C15.1643 15.4485 15.1535 15.5228 15.0723 15.4954C15.0599 15.4912 15.0284 15.5381 15.0093 15.5629C14.9579 15.6286 14.909 15.696 14.8552 15.766C14.8303 15.7438 14.8138 15.7276 14.7922 15.708C14.6406 15.8804 14.4434 15.9683 14.2346 16.0383C14.1906 16.0528 14.1575 16.0998 14.1152 16.1254C14.0531 16.1638 14.0075 16.2406 13.9122 16.2039C13.8898 16.1954 13.8492 16.2363 13.8161 16.2543C13.6943 16.3183 13.5758 16.3883 13.4507 16.4429C13.3363 16.4932 13.2162 16.5282 13.0877 16.5735C13.0844 16.5624 13.0761 16.5359 13.0629 16.4932C12.9767 16.5436 12.8939 16.5923 12.7969 16.6486C12.7977 16.6008 12.7986 16.5726 12.7994 16.5462C12.6436 16.5282 12.5061 16.5914 12.3594 16.6776C12.371 16.6221 12.376 16.5965 12.3859 16.5462C12.2774 16.6341 12.1696 16.6179 12.057 16.5846C12.0553 16.5718 12.052 16.5479 12.0503 16.5325C11.878 16.5359 11.7081 16.5376 11.5391 16.5453C11.5059 16.547 11.4678 16.5701 11.4413 16.594C11.3344 16.6913 11.2341 16.7954 11.1264 16.8919C11.0767 16.9362 11.0494 16.9857 11.0527 17.0532C11.0568 17.1266 11.0552 17.2008 11.0668 17.2734C11.1082 17.5371 11.0676 17.7923 10.9889 18.0416C10.8637 18.4351 10.8513 18.8379 10.8538 19.2476C10.8563 19.6812 10.9599 20.0978 11.0112 20.5237C11.0336 20.7106 11.143 20.8557 11.2449 21.0025C11.3344 21.1314 11.4313 21.2543 11.5175 21.3849C11.578 21.4771 11.6261 21.5787 11.6832 21.6845C11.4985 21.8347 11.3062 21.8868 11.09 21.8416C11.0361 21.8305 10.9839 21.8126 10.9317 21.7946C10.7743 21.7417 10.7552 21.7135 10.756 21.5394C10.756 21.4302 10.6765 21.2885 10.6276 21.1732C10.5936 21.093 10.5215 21.0196 10.5348 20.9163C10.548 20.8173 10.5091 20.7328 10.4652 20.6449C10.4213 20.5578 10.3914 20.4537 10.3889 20.3555C10.384 20.1319 10.3492 19.9185 10.2663 19.7111C10.2207 19.5967 10.2125 19.4619 10.1511 19.3595C10.0517 19.193 10.05 19.0197 10.055 18.8388C10.055 18.8166 10.0592 18.7833 10.0476 18.7731C9.94481 18.6894 9.98376 18.5768 9.98873 18.4743C9.99701 18.2831 10.0219 18.0919 10.0252 17.9007C10.0268 17.7855 10.0012 17.6686 9.98375 17.5201C9.95641 17.6037 9.93735 17.6626 9.91829 17.7206C9.85781 17.4535 9.97547 17.2051 10.0103 16.9371C9.89426 16.9516 9.80643 16.9789 9.77246 17.1215C9.75837 17.0916 9.74346 17.0626 9.73268 17.0395C9.62828 17.0566 9.66557 17.1539 9.61916 17.2042C9.60011 17.1633 9.58271 17.1257 9.55536 17.0685C9.52139 17.1249 9.49736 17.1641 9.47333 17.2042C9.40207 17.1018 9.30926 17.0941 9.22806 17.1974C9.17088 17.2708 9.11537 17.3579 9.09548 17.4467C9.04162 17.6874 8.92147 17.8939 8.80795 18.1047C8.77066 18.1739 8.70023 18.2234 8.65963 18.2917C8.63063 18.3412 8.62565 18.406 8.61488 18.4453C8.57014 18.4905 8.52953 18.5213 8.50385 18.5614C8.43424 18.6689 8.3663 18.779 8.30581 18.8917C8.20306 19.0838 8.10611 19.2801 8.00502 19.473C7.98845 19.5046 7.96939 19.5396 7.94288 19.56C7.86664 19.6181 7.80367 19.6821 7.78792 19.7854C7.78378 19.8093 7.75229 19.8289 7.73158 19.8485C7.72164 19.8579 7.69761 19.8665 7.69843 19.8724C7.71832 19.9902 7.61226 20.0508 7.58243 20.1439C7.55177 20.2403 7.53105 20.341 7.51614 20.4409C7.49045 20.6142 7.46642 20.7874 7.45316 20.9624C7.44902 21.0205 7.47056 21.0836 7.49294 21.1391C7.52443 21.2168 7.57166 21.2885 7.60563 21.3653C7.65783 21.4831 7.64375 21.5386 7.53271 21.5804C7.31396 21.6623 7.101 21.6367 6.90462 21.5044C6.85656 21.472 6.84082 21.4293 6.85325 21.3602C6.90545 21.0606 6.94025 20.7576 6.99411 20.458C7.01897 20.3206 7.07117 20.1874 7.11426 20.0542C7.17806 19.8562 7.2543 19.6625 7.30981 19.4627C7.46062 18.919 7.60977 18.3745 7.90476 17.8888C7.95033 17.8137 7.99839 17.7394 8.02988 17.6472C7.99508 17.6703 7.95945 17.6933 7.92465 17.7155C7.91719 17.7087 7.9089 17.701 7.90144 17.6942C7.96359 17.5986 8.02491 17.5021 8.10694 17.375C8.05142 17.4023 8.02905 17.4134 8.00419 17.4262C7.9437 17.3869 8.10114 17.2964 7.96691 17.2768C8.01082 17.194 8.05142 17.1163 8.09534 17.0335C8.07131 17.0216 8.0564 17.0071 8.04562 17.0096C7.78875 17.0634 7.53437 17.0378 7.27833 16.9917C7.14989 16.9687 7.01648 16.9635 6.88639 16.9661C6.63283 16.9712 6.38176 16.9661 6.13732 16.8825C6.11661 16.8756 6.09423 16.8731 6.07352 16.8654C5.78682 16.7544 5.56889 16.8893 5.38411 17.0907C5.21507 17.2751 5.04935 17.4671 4.9118 17.6771C4.75851 17.911 4.65493 18.1739 4.60438 18.4556C4.55715 18.7159 4.49335 18.9737 4.45192 19.2348C4.43286 19.3552 4.43369 19.4841 4.45026 19.6053C4.49252 19.9126 4.55218 20.2173 4.59776 20.5246C4.61599 20.6466 4.65576 20.7524 4.73613 20.8429C4.80988 20.9266 4.88197 21.0119 4.95655 21.0939C5.05432 21.2014 5.05267 21.2475 4.93915 21.3397C4.83557 21.4242 4.71459 21.4788 4.58698 21.4489C4.43866 21.4139 4.29531 21.3533 4.15528 21.2902C4.07241 21.2535 4.05667 21.1596 4.04424 21.0751C4.03844 21.0367 4.03927 20.9957 4.04424 20.9564C4.05916 20.8318 3.96387 20.7414 3.95061 20.6227C3.94564 20.5817 3.94481 20.557 3.96304 20.5211C4.03098 20.3854 4.01027 20.2864 3.91249 20.1592C3.8868 20.1251 3.87106 20.0628 3.88183 20.0227C3.93072 19.8315 3.91415 19.6445 3.88183 19.4525C3.8288 19.1358 3.88929 18.8209 3.92658 18.5076C3.94895 18.3173 3.99287 18.1295 4.02518 17.9409C4.03181 17.9007 4.0285 17.8581 4.01441 17.8128C3.91083 17.9161 3.8578 18.0433 3.83046 18.179C3.75008 18.5827 3.67965 18.989 3.60093 19.3927C3.54873 19.6582 3.5537 19.9202 3.61419 20.1823C3.68379 20.4844 3.74843 20.7874 3.82466 21.087C3.8462 21.1715 3.8926 21.2526 3.94232 21.3243C4.03761 21.4626 4.14285 21.5932 4.24477 21.7263C4.321 21.8271 4.3152 21.8945 4.20002 21.9329C3.96635 22.0114 3.72771 22.0336 3.49238 21.9303C3.45261 21.9124 3.41532 21.8868 3.37638 21.8663C3.29517 21.8237 3.25208 21.7579 3.25954 21.6615C3.2612 21.6393 3.25623 21.6162 3.25954 21.594C3.28357 21.3935 3.18911 21.2441 3.05653 21.1195C2.98527 21.0529 2.94218 20.9914 2.95958 20.8873C2.96704 20.8421 2.94384 20.7917 2.93307 20.7371C2.96124 20.7175 2.99024 20.6961 3.0267 20.6714C2.99521 20.6312 2.9687 20.598 2.94053 20.5621C2.9455 20.545 2.9455 20.5228 2.95544 20.516C3.00267 20.4827 3.0151 20.4375 3.00599 20.3829C2.94135 20.0167 2.89164 19.6463 2.80629 19.2852C2.74746 19.0343 2.64554 18.7936 2.55108 18.5529C2.46821 18.342 2.47153 18.144 2.57013 17.94C2.66625 17.7394 2.70023 17.5218 2.69277 17.2973C2.68034 16.955 2.73254 16.6221 2.83115 16.2952C2.86512 16.1843 2.89495 16.0673 2.84441 15.9222C2.65051 16.1774 2.38784 16.343 2.23786 16.6179C2.16577 16.7493 2.16494 16.757 2.22129 16.8927C2.19974 16.9303 2.16411 16.9635 2.16494 16.9968C2.16494 17.0634 2.18069 17.1308 2.19891 17.1957C2.23123 17.3092 2.23372 17.3084 2.19891 17.4578C2.15831 17.3818 2.1202 17.328 2.09948 17.2674C2.07794 17.2042 2.06882 17.136 2.06136 17.0685C2.03982 16.868 2.05474 16.6648 2.00833 16.4634C1.97767 16.3311 2.03485 16.2005 2.12683 16.1074C2.2478 15.9862 2.37707 15.8702 2.5171 15.7737C2.63062 15.696 2.68697 15.6056 2.68531 15.469C2.68531 15.4067 2.6936 15.3444 2.69028 15.2829C2.67785 15.049 2.78557 14.8715 2.93804 14.7136C2.9687 14.682 2.99936 14.6479 3.03499 14.6214C3.21563 14.4883 3.3308 14.3039 3.41118 14.0965C3.48907 13.8959 3.61668 13.7423 3.77826 13.6065C3.91332 13.493 4.03181 13.359 4.15528 13.231C4.24394 13.1397 4.32763 13.0432 4.41629 12.9459C4.33177 12.6105 4.24062 12.2742 4.16273 11.9336C4.09313 11.6314 4.03761 11.3267 3.97381 11.0229C3.96635 10.9853 3.95144 10.9494 3.93486 10.9153C3.87437 10.7941 3.89592 10.7045 4.00115 10.6447C4.09064 10.5944 4.19173 10.6311 4.24974 10.7361C4.26548 10.7651 4.27542 10.7967 4.28951 10.8325C4.37817 10.8351 4.46435 10.8376 4.57124 10.8402C4.57538 10.6627 4.58533 10.4894 4.58367 10.317C4.58201 10.1343 4.58035 9.96019 4.69636 9.80057C4.75685 9.71778 4.77011 9.59999 4.82065 9.50866C4.89357 9.37721 4.97643 9.25089 5.06592 9.13054C5.13718 9.03494 5.20762 8.94703 5.2101 8.81643C5.21176 8.75754 5.24573 8.6995 5.26728 8.63377C5.24325 8.59536 5.21673 8.55269 5.19022 8.51001C5.07421 8.32394 5.10735 8.13701 5.20845 7.96545C5.30788 7.79644 5.46614 7.69914 5.6617 7.70853C5.75036 7.7128 5.83654 7.77937 5.9252 7.78364C6.00806 7.78705 6.09175 7.73072 6.17627 7.72645C6.30305 7.72048 6.39254 7.80412 6.4522 7.91167C6.49777 7.99276 6.52677 8.08409 6.56323 8.172C6.65355 8.11311 6.57566 8.02861 6.59306 7.93899C6.61875 7.98166 6.63946 8.0141 6.67758 8.07641C6.66432 7.98678 6.65604 7.93301 6.64112 7.83656C6.68421 7.89716 6.70575 7.92704 6.72647 7.95606C6.73558 7.9535 6.7447 7.95094 6.75298 7.94923C6.74304 7.86387 6.73227 7.77937 6.71735 7.65902C6.75547 7.71536 6.77536 7.74608 6.81016 7.79815C6.8375 7.67695 6.75298 7.61037 6.72813 7.50197C6.77039 7.5344 6.79856 7.55745 6.82756 7.57964C6.83419 7.57708 6.83999 7.57367 6.84662 7.57111C6.8027 7.48063 6.77453 7.37479 6.7099 7.30395C6.63946 7.22627 6.53506 7.18018 6.4348 7.1136C6.48203 7.09653 6.52097 7.08288 6.56323 7.06751C6.55494 7.04788 6.54666 7.02825 6.5392 7.00862C6.54252 7.0052 6.54749 6.99923 6.54997 7.00008C6.61626 7.0274 6.69167 7.04276 6.7447 7.08714C6.80104 7.13409 6.79193 7.2459 6.89468 7.26212C6.90876 7.26468 6.92119 7.32187 6.92285 7.3543C6.92616 7.41491 6.92119 7.47636 6.91954 7.55233C6.95682 7.52843 6.98085 7.51392 7.02808 7.48404C6.99328 7.56769 6.96428 7.62829 6.94357 7.69146C6.92865 7.73669 6.83336 7.78279 6.93859 7.83485C6.94108 7.83656 6.93114 7.87668 6.91954 7.89375C6.88059 7.9535 6.8375 8.01154 6.79607 8.07043C6.81182 8.07811 6.83005 8.0875 6.86733 8.10543C6.78199 8.15493 6.73061 8.18737 6.67758 8.21468C6.58312 8.26419 6.50606 8.3282 6.44971 8.42551C6.3337 8.62951 6.33288 8.6278 6.29725 8.86167C6.27819 8.98885 6.24421 9.11347 6.21853 9.23894C6.2061 9.29783 6.16881 9.32429 6.11495 9.33027C6.06109 9.33624 6.0064 9.3388 5.95006 9.34307L5.95171 9.34563ZM2.1086 16.4787C2.1782 16.3772 2.23703 16.285 2.30166 16.1979C2.36547 16.1126 2.43673 16.0323 2.50467 15.9504C2.21963 16.081 2.09534 16.2525 2.1086 16.4787Z" fill="#328AEE"/>
<path d="M21.8933 11.2914C21.99 11.4476 22.0721 11.5911 22.165 11.7279C22.3085 11.9402 22.5196 12.0695 22.7583 12.1592C23.0047 12.2519 23.2426 12.3565 23.4115 12.5658C23.4452 12.6076 23.4829 12.648 23.5051 12.6958C23.6272 12.9597 23.852 13.1279 24.0892 13.2781C24.2427 13.3753 24.3586 13.4949 24.4093 13.666C24.4515 13.8095 24.5367 13.8992 24.6818 13.9575C25.15 14.1466 25.6136 14.3462 26.0779 14.5443C26.2429 14.6145 26.3957 14.6168 26.5607 14.5286C26.8324 14.3828 27.0611 14.1885 27.2745 13.9747C27.5263 13.7236 27.7742 13.4694 28.0236 13.2168C28.0536 13.1862 28.0812 13.1525 28.1119 13.1226C28.2148 13.0225 28.2393 12.9051 28.1979 12.7706C28.1864 12.7332 28.1848 12.6929 28.1748 12.6308C28.2639 12.6473 28.3299 12.6592 28.3928 12.6712C28.3928 12.571 28.3851 12.4768 28.3951 12.3842C28.4066 12.2728 28.4135 12.2728 28.5087 12.2758C28.6054 12.1711 28.6853 12.077 28.7758 11.994C28.7981 11.9738 28.8626 11.9731 28.8933 11.9895C28.9708 12.0306 29.0498 12.0231 29.1312 12.0246C29.2947 12.0276 29.4574 12.0373 29.6209 12.0478C29.8059 12.0598 29.9908 12.0829 30.1758 12.0874C30.3669 12.0919 30.5389 12.1495 30.7116 12.2197C30.8351 12.2705 30.9057 12.3715 30.9733 12.4724C31.024 12.5478 30.9986 12.642 30.9303 12.722C30.842 12.8259 30.7223 12.8707 30.5918 12.8939C30.5036 13.1854 30.3999 13.465 30.2449 13.7228C30.0261 14.0868 29.7729 14.4239 29.4336 14.6938C29.234 14.853 29.0245 14.9935 28.7866 15.0936C28.7482 15.1101 28.7106 15.1363 28.6837 15.1676C28.5578 15.3141 28.4373 15.4651 28.3122 15.6124C28.2263 15.7133 28.1342 15.8104 28.0321 15.9233C28.0229 15.8673 28.0183 15.8374 28.0114 15.7925C27.9845 15.8082 27.9599 15.8157 27.9438 15.8321C27.801 15.9779 27.6591 16.1244 27.5171 16.2716C27.4848 16.3053 27.4549 16.3142 27.4004 16.3187C27.2768 16.3292 27.1885 16.4234 27.1433 16.5355C27.0366 16.7971 26.9376 17.0617 26.837 17.3255C26.8102 17.395 26.7925 17.4683 26.7649 17.537C26.7487 17.5782 26.7388 17.632 26.6643 17.614C26.6497 17.6103 26.616 17.6492 26.6021 17.6738C26.5361 17.7897 26.4632 17.904 26.4133 18.0266C26.3596 18.1589 26.3197 18.2979 26.2905 18.4377C26.236 18.6971 26.1554 18.952 26.1455 19.2203C26.1393 19.3877 26.1577 19.5447 26.2261 19.7016C26.332 19.9461 26.4164 20.1987 26.5169 20.4446C26.5546 20.5373 26.6152 20.621 26.6597 20.7114C26.7656 20.9304 26.9069 21.1151 27.1141 21.2593C27.2354 21.3438 27.3221 21.4738 27.4234 21.5815C27.3612 21.7347 27.2538 21.8042 27.0964 21.8199C26.8785 21.8416 26.6728 21.8087 26.4763 21.7145C26.4264 21.6906 26.3727 21.66 26.3849 21.5964C26.4133 21.4447 26.3412 21.3288 26.2544 21.2167C26.2445 21.204 26.2391 21.1883 26.2299 21.1719C26.2468 21.148 26.2637 21.1233 26.2813 21.0979C26.1808 20.9252 26.0818 20.7555 25.982 20.5859C25.9743 20.5724 25.9543 20.5552 25.9574 20.5463C26.0058 20.4229 25.8998 20.3512 25.8538 20.2637C25.7671 20.0985 25.7003 19.9236 25.589 19.7689C25.4977 19.6433 25.5145 19.4834 25.5145 19.3354C25.5145 19.002 25.5414 18.6664 25.4616 18.3376C25.4478 18.2815 25.4132 18.2307 25.3733 18.1813C25.4677 17.8278 25.5353 17.4645 25.5529 17.0833C25.3127 17.0961 25.1193 17.1828 24.9719 17.3696C24.9197 17.3375 24.8813 17.3136 24.846 17.2919C24.8307 17.3023 24.8161 17.3068 24.8145 17.3136C24.7808 17.4496 24.7462 17.5797 24.6656 17.7052C24.5789 17.8405 24.5306 18.0087 24.5014 18.1686C24.4645 18.3757 24.3816 18.5655 24.3087 18.7584C24.2527 18.9064 24.1606 19.0409 24.0969 19.1867C24.0086 19.3862 23.9319 19.5903 23.8505 19.7921C23.8405 19.8168 23.8367 19.8444 23.8229 19.8668C23.6233 20.1912 23.5565 20.5597 23.4552 20.917C23.423 21.0321 23.4268 21.1367 23.4875 21.2391C23.5558 21.3535 23.6241 21.4686 23.6962 21.5912C23.6479 21.7452 23.5297 21.8087 23.3662 21.8102C23.2004 21.8124 23.0446 21.7698 22.9064 21.719C22.8635 21.5404 22.8243 21.3759 22.7852 21.2122C22.766 21.1315 22.776 21.0575 22.8228 20.9835C22.9018 20.8565 22.9763 20.7264 23.0438 20.5934C23.0883 20.5066 23.0822 20.5037 22.9955 20.4177C23.0546 20.3265 23.1175 20.2346 23.1743 20.1389C23.2042 20.0881 23.2572 20.0313 23.1774 19.973C23.1674 19.9655 23.1689 19.9304 23.1774 19.9147C23.2848 19.7211 23.2641 19.5006 23.3171 19.2958C23.37 19.0902 23.4276 18.8854 23.4928 18.6844C23.5535 18.499 23.5849 18.3211 23.5366 18.123C23.5051 17.9945 23.5343 17.8495 23.5481 17.7127C23.5604 17.5879 23.5888 17.4645 23.6118 17.3293C23.4176 17.3053 23.2434 17.3091 23.073 17.342C22.6178 17.4294 22.1627 17.4391 21.7075 17.3494C21.5371 17.3158 21.3667 17.2747 21.201 17.2224C21.0989 17.1902 21.0405 17.2127 20.983 17.2964C20.8064 17.552 20.6291 17.8069 20.4419 18.055C20.3237 18.212 20.2446 18.3809 20.1801 18.5648C20.1241 18.724 20.032 18.8705 19.9598 19.0252C19.9146 19.1216 19.8685 19.2188 19.8386 19.3205C19.8178 19.3892 19.8155 19.4662 19.8209 19.538C19.8386 19.7771 19.8846 20.0118 19.9836 20.2338C19.9944 20.2577 19.9967 20.2854 19.9998 20.3116C20.0358 20.5948 20.1318 20.8579 20.2761 21.1054C20.3298 21.1973 20.3912 21.2847 20.4488 21.3744C20.5209 21.4865 20.5946 21.5979 20.6644 21.7108C20.6982 21.7653 20.6775 21.8087 20.6291 21.8491C20.3513 22.0838 19.9775 22.0157 19.7365 21.8423C19.7112 21.8244 19.6989 21.7803 19.6943 21.7467C19.6705 21.5733 19.6475 21.3998 19.6321 21.2257C19.6267 21.1689 19.649 21.1113 19.6528 21.053C19.6567 20.9887 19.6973 20.9185 19.6129 20.8662C19.5953 20.855 19.606 20.7974 19.6075 20.7615C19.6106 20.698 19.6444 20.5986 19.616 20.5777C19.5016 20.4947 19.5285 20.3691 19.4878 20.266C19.4433 20.1516 19.3988 20.038 19.3512 19.9251C19.312 19.8317 19.2744 19.7375 19.2261 19.6478C19.124 19.4565 19.1501 19.2666 19.2276 19.0783C19.3097 18.881 19.3934 18.6851 19.4088 18.4691C19.4111 18.434 19.4325 18.3996 19.4471 18.3652C19.5822 18.0408 19.7181 17.7164 19.8509 17.3913C19.8723 17.3382 19.88 17.2799 19.9038 17.1865C19.7135 17.3577 19.5853 17.5288 19.4625 17.7052C19.3896 17.8106 19.3189 17.919 19.2314 18.0124C19.0296 18.2284 18.8193 18.4377 18.609 18.6463C18.5683 18.6866 18.5138 18.715 18.4624 18.7434C18.3825 18.7875 18.3257 18.8473 18.3027 18.9355C18.2782 19.0282 18.2452 19.1194 18.2306 19.2136C18.1953 19.4513 18.1016 19.6635 17.9497 19.8496C17.8054 20.0275 17.7363 20.2278 17.7225 20.4521C17.7148 20.5732 17.6979 20.6965 17.6649 20.8131C17.6188 20.9745 17.6311 21.1293 17.6856 21.2825C17.7301 21.4073 17.7846 21.5284 17.8391 21.6502C17.8798 21.7414 17.8744 21.7863 17.7823 21.8349C17.7163 21.8692 17.6411 21.8947 17.5674 21.9036C17.4385 21.9186 17.3057 21.932 17.1775 21.9193C17.0271 21.9044 16.9971 21.8408 17.0002 21.6936C17.004 21.4581 17.0401 21.2287 17.1123 21.0044C17.1368 20.929 17.1737 20.8579 17.199 20.7825C17.2236 20.7092 17.3003 20.6412 17.2174 20.553C17.2021 20.5365 17.2366 20.476 17.2481 20.4364C17.2727 20.3489 17.3479 20.2697 17.2842 20.1688C17.2735 20.1524 17.2911 20.118 17.298 20.0926C17.361 19.8504 17.4224 19.6082 17.4868 19.3668C17.5383 19.1754 17.5759 18.9826 17.5513 18.7845C17.5321 18.6246 17.5713 18.4773 17.6472 18.3398C17.7432 18.1671 17.843 17.996 17.9474 17.8278C18.0249 17.7022 18.0702 17.5744 18.0625 17.4227C18.0456 17.1043 18.0387 16.7844 18.0947 16.4682C18.1131 16.3643 18.1446 16.2627 18.1715 16.1603C18.229 15.9405 18.2881 15.7215 18.3526 15.4786C18.1339 15.5877 17.9312 15.6767 17.7409 15.7865C17.5175 15.9158 17.4124 16.1363 17.3318 16.3651C17.2965 16.4637 17.2819 16.5691 17.2535 16.6924C17.2028 16.4869 17.2466 16.306 17.2873 16.1251C17.3118 16.0167 17.3433 15.9091 17.3663 15.8C17.4362 15.4659 17.6772 15.2342 18.0226 15.1729C18.1139 15.1564 18.206 15.1437 18.2958 15.1243C18.4202 15.0966 18.5092 15.0324 18.556 14.9083C18.6642 14.6257 18.8584 14.3925 19.0442 14.1578C19.1217 14.0599 19.2345 13.9807 19.3458 13.9194C19.5953 13.7826 19.8102 13.6047 20.0243 13.4343C19.9268 13.0232 19.8317 12.6211 19.7311 12.1995C19.7142 12.1906 19.6736 12.1756 19.6405 12.1502C19.5638 12.0927 19.5454 11.9962 19.5914 11.923C19.6398 11.8452 19.7073 11.8378 19.7979 11.9006C19.9092 11.9775 19.9483 11.9686 19.9767 11.8445C20.0305 11.6076 20.1164 11.3878 20.2761 11.1972C20.3052 11.1628 20.3191 11.1105 20.3252 11.0649C20.349 10.908 20.435 10.8026 20.5854 10.745C20.6053 10.7375 20.6222 10.7226 20.6499 10.7054C20.6583 10.5462 20.6652 10.3825 20.676 10.2181C20.679 10.1665 20.676 10.103 20.7051 10.0671C20.7704 9.98561 20.7519 9.90937 20.7197 9.82789C20.6453 9.64178 20.679 9.48706 20.8448 9.35999C20.8901 9.32486 20.9147 9.26507 20.9561 9.22471C21.0237 9.15744 21.092 9.08792 21.171 9.03635C21.2462 8.98702 21.3353 8.98851 21.4189 9.0371C21.5916 9.13725 21.7666 9.23143 21.8687 9.41456C21.9194 9.505 21.9294 9.58722 21.9079 9.68812C21.8695 9.869 21.8472 10.0536 21.8227 10.2375C21.8173 10.2786 21.8211 10.3242 21.8342 10.3638C21.8887 10.526 21.9378 10.6875 21.8979 10.8624C21.8917 10.8915 21.9002 10.9274 21.9132 10.9558C21.9654 11.0694 21.9731 11.1808 21.891 11.2951L21.8933 11.2914ZM30.4092 12.9702C30.2764 13.0038 30.1766 13.0105 30.109 13.1084C30.0246 13.2318 29.931 13.3506 29.8281 13.459C29.7222 13.5704 29.6439 13.687 29.6078 13.8394C29.5833 13.9441 29.5142 14.0405 29.4551 14.1347C29.4129 14.2019 29.3507 14.2573 29.3031 14.3215C29.2624 14.3761 29.2118 14.4292 29.2026 14.5263C29.8005 14.1444 30.1083 13.5808 30.4092 12.9702ZM17.6265 15.6273C17.6849 15.5885 17.7424 15.5503 17.8008 15.5115C17.8552 15.4756 17.9182 15.4479 17.9727 15.359C17.7931 15.4031 17.6833 15.4816 17.6258 15.6273H17.6265ZM18.3081 15.35C18.302 15.3403 18.295 15.3313 18.2889 15.3216C18.2099 15.3724 18.1316 15.4233 18.0525 15.4741C18.0586 15.4831 18.0648 15.492 18.0702 15.501C18.1492 15.4509 18.2283 15.4001 18.3081 15.35Z" fill="#328AEE"/>
<path d="M0 8.97201C2.05415 8.04843 4.24456 6.61445 6.26469 4.76584C6.69507 4.37201 7.31719 4.25745 7.84914 4.49694C9.15709 5.08579 10.6852 4.88799 11.8001 3.98551L14.3212 1.94478C15.7203 0.812207 17.7225 0.81787 19.1152 1.95833L21.7302 4.09967C23.0604 3.12303 24.8613 3.08932 26.2272 4.01549L33 8.60809C28.3633 5.60665 28.1797 6.08588 27.8824 6.34059C27.6059 6.57744 27.8675 7.38784 28.5616 7.82244C28.6085 7.84953 28.6545 7.87563 28.6995 7.90069C28.6518 7.8763 28.6058 7.85013 28.5616 7.82244C27.0151 6.92998 24.4514 4.96405 24.205 3.71957C23.947 2.41651 23.3181 5.36133 24.2666 6.29129L27.0294 9L25.0217 7.80121C23.8883 7.1245 22.9107 7.92719 23.949 8.74234C18.7964 4.69697 17.8615 6.00018 14.3627 7.79209C15.0479 7.31016 16.2348 6.32334 16.7033 5.45797C16.9504 5.00171 16.6992 4.49372 16.3398 4.1195C16.1084 3.87863 16.0452 3.52007 16.182 3.2154L16.6632 2.14377C16.7023 2.05683 16.7092 1.95886 16.6827 1.8673C16.5959 1.56694 16.2267 1.46006 16.0003 1.67566C13.1018 4.4355 11.4669 7.85611 9.17647 8.21617C11.4466 6.52761 5.79007 6.28602 3.26133 7.55501C2.04054 8.16764 0.90933 8.65094 0 8.97201Z" fill="#328AEE"/>
</svg>
