<svg width="25" height="14" viewBox="0 0 25 14" fill="none" xmlns="http://www.w3.org/2000/svg">
<path fill-rule="evenodd" clip-rule="evenodd" d="M24.0743 11.0926V11.5176H24.0122V11.1964L23.9167 11.4737H23.8518L23.7563 11.1971V11.5176H23.6936V11.0926H23.7824L23.884 11.3845L23.9861 11.0926H24.0743ZM23.5155 11.1647V11.5172H23.4533V11.1647H23.3401V11.0929H23.6287V11.1647H23.5155Z" fill="#F79410"/>
<path d="M15.5847 12.4024H9.2146V1.60156H15.5847V12.4024Z" fill="#FF5F00"/>
<path d="M9.62277 7.00003C9.62277 4.80902 10.7101 2.85733 12.4033 1.59959C11.1651 0.679864 9.60241 0.130912 7.90408 0.130912C3.88345 0.130912 0.624268 3.20627 0.624268 7.00003C0.624268 10.7938 3.88345 13.8691 7.90408 13.8691C9.60241 13.8691 11.1651 13.3202 12.4033 12.4005C10.7101 11.1427 9.62277 9.19103 9.62277 7.00003Z" fill="#EB001B"/>
<path d="M24.1758 7.00003C24.1758 10.7938 20.9166 13.8691 16.896 13.8691C15.1976 13.8691 13.6349 13.3202 12.3962 12.4005C14.0899 11.1427 15.1773 9.19103 15.1773 7.00003C15.1773 4.80902 14.0899 2.85733 12.3962 1.59959C13.6349 0.679864 15.1976 0.130912 16.896 0.130912C20.9166 0.130912 24.1758 3.20627 24.1758 7.00003Z" fill="#EDAE01"/>
</svg>
