<svg xmlns="http://www.w3.org/2000/svg" version="1.1" viewBox="-5.0 -10.0 110.0 135.0">
 <path d="m59.23 62.016c-0.66016 0-1.1992-0.53516-1.1992-1.1992 0-0.66016 0.53516-1.1992 1.1992-1.1992h4.3828c0.66016 0 1.1992 0.53516 1.1992 1.1992 0 0.66016-0.53516 1.1992-1.1992 1.1992zm-45.352 1.8125c-0.66016 0-1.1992-0.53516-1.1992-1.1992 0-0.66016 0.53516-1.1992 1.1992-1.1992h36.156c0.66016 0 1.1992 0.53516 1.1992 1.1992 0 0.66016-0.53516 1.1992-1.1992 1.1992zm78.762 0.44922h-2.8164v1.6914c0 0.5 0.16797 0.94531 0.4375 1.2578 0.23047 0.26563 0.53516 0.43359 0.85938 0.43359h1.5195zm-62.043 10.379c-0.99609-0.99609-2.3711-1.6094-3.8906-1.6094s-2.8945 0.61719-3.8906 1.6094c-0.99609 0.99609-1.6094 2.3711-1.6094 3.8906s0.61719 2.8945 1.6094 3.8906c0.99609 0.99609 2.3711 1.6094 3.8906 1.6094s2.8945-0.61719 3.8906-1.6094c0.99609-0.99609 1.6094-2.3711 1.6094-3.8906s-0.61719-2.8945-1.6094-3.8906zm-23.238-2.1602h3.7539v-3.2422h-3.7539zm51.848-20.211h14.82l-6.043-7.8789c-0.15625-0.20312-0.36328-0.33594-0.59766-0.41797-0.29297-0.10547-0.64062-0.14062-1.0078-0.14062h-7.1758v8.4375zm17.242 2.3945h-18.441c-0.66016 0-1.1992-0.53516-1.1992-1.1992v-10.836c0-0.66016 0.53516-1.1992 1.1992-1.1992h8.3711c0.60156 0 1.2148 0.070313 1.8008 0.28125 0.64453 0.23047 1.2305 0.61328 1.6992 1.2227l7.5195 9.8047c0.39844 0.52344 0.30078 1.2734-0.22656 1.6758-0.21875 0.16406-0.47266 0.24609-0.72656 0.24609v0.003907zm-60.109-13.23h33.828c0.66016 0 1.1992 0.53516 1.1992 1.1992v10.906c0 0.66016-0.53516 1.1992-1.1992 1.1992h-37.457c-0.66016 0-1.1992-0.53516-1.1992-1.1992v-7.2812c0-1.3281 0.54297-2.5352 1.4141-3.4062 0.875-0.875 2.0781-1.4141 3.4062-1.4141zm14.484 10.91v-8.5117h-14.488c-0.66797 0-1.2734 0.27344-1.7148 0.71484s-0.71484 1.0469-0.71484 1.7148v6.0859h16.914zm2.3984-8.5117v8.5117h15.75v-8.5117zm43.945 30.809c-0.99609-0.99609-2.3711-1.6094-3.8906-1.6094-1.5195 0-2.8945 0.61719-3.8906 1.6094-0.99609 0.99609-1.6094 2.3711-1.6094 3.8906s0.61719 2.8945 1.6094 3.8906c0.99609 0.99609 2.3711 1.6094 3.8906 1.6094 1.5195 0 2.8945-0.61719 3.8906-1.6094 0.99609-0.99609 1.6094-2.3711 1.6094-3.8906s-0.61719-2.8945-1.6094-3.8906zm-3.8906-4.0039c2.1797 0 4.1523 0.88281 5.582 2.3125 1.2891 1.2891 2.1328 3.0195 2.2852 4.9414h10.035c0.36719 0 0.71484-0.1875 0.97266-0.48438 0.30078-0.34766 0.48438-0.83594 0.48438-1.3906v-5.9766h-1.5195c-1.0508 0-1.9922-0.48438-2.6641-1.2656-0.63281-0.73437-1.0273-1.7344-1.0273-2.8203v-2.8906c0-0.66016 0.53516-1.1992 1.1992-1.1992h4.0156v-1.2852c0-0.87109-0.078125-1.7812-0.32812-2.5195-0.19922-0.58203-0.50391-1.0508-0.97266-1.25l-7.9141-3.3984c-0.19922-0.074219-0.38281-0.20312-0.52344-0.38281l-7.5391-9.5898 0.003907-0.003906c-1.707-2.1562-2.9492-3.5977-4.4023-4.4609-1.4102-0.83594-3.1445-1.1758-5.8906-1.1758l-49.273 0.007812c-4.2148 0-6.3047 1.5469-7.3281 3.7031-1.0977 2.3125-1.1133 5.4453-1.1133 8.2031v17.133h4.9492c0.66016 0 1.1992 0.53516 1.1992 1.1992v5.6406c0 0.66016-0.53516 1.1992-1.1992 1.1992h-4.9492v1.1406c0 0.53906 0.19531 1.0234 0.5 1.3672 0.27734 0.3125 0.64453 0.50781 1.0234 0.50781h9.9531c0.15234-1.9258 1-3.6562 2.2852-4.9414 1.4297-1.4297 3.4023-2.3125 5.582-2.3125s4.1523 0.88281 5.582 2.3125c1.2891 1.2891 2.1328 3.0195 2.2852 4.9414h30.828c0.15234-1.9258 1-3.6562 2.2852-4.9414 1.4297-1.4297 3.4023-2.3125 5.582-2.3125zm-33.781-48.508v-4.6445c0-0.41016-0.18359-0.78516-0.48438-1.0625-0.32031-0.29688-0.76953-0.48438-1.2695-0.48438h-9.9805c-0.5 0-0.94922 0.18359-1.2695 0.48438-0.29688 0.27734-0.48438 0.65234-0.48438 1.0625v4.6445zm16.066 13.281v-2.8633h-31.129v2.8633zm2.3984-2.8633h2.4844c0.66016 0 1.1992-0.53516 1.1992-1.1992 0-0.66016-0.53516-1.1992-1.1992-1.1992h-6.3711v-4.0391c0-1.1094-0.48438-2.1172-1.2617-2.8398-0.75781-0.70312-1.793-1.1406-2.9297-1.1406h-7.9883v-4.6445c0-1.1016-0.48047-2.0977-1.25-2.8125-0.75-0.69531-1.7773-1.1289-2.8984-1.1289h-9.9805c-1.1211 0-2.1484 0.43359-2.8984 1.1289-0.77344 0.71875-1.25 1.7148-1.25 2.8125v4.6445h-0.30078c-1.1328 0-2.1719 0.4375-2.9297 1.1406-0.77734 0.72656-1.2617 1.7305-1.2617 2.8398v4.0391h-1.5977c-0.66016 0-1.1992 0.53516-1.1992 1.1992 0 0.66016 0.53516 1.1992 1.1992 1.1992h4.5195v2.8633h-6.2422c-5.3555 0-8.0859 2.1211-9.4883 5.0781-1.3281 2.7969-1.3477 6.2188-1.3477 9.2227v26.305c0 1.1406 0.42969 2.1836 1.1094 2.9492 0.72266 0.8125 1.7266 1.3203 2.8125 1.3203h10.125c0.33594 1.4766 1.082 2.793 2.1172 3.8281 1.4297 1.4297 3.4023 2.3125 5.582 2.3125 2.1797 0 4.1523-0.88281 5.582-2.3125 1.0312-1.0312 1.7812-2.3516 2.1172-3.8281h31.172c0.33594 1.4766 1.082 2.793 2.1172 3.8281 1.4297 1.4297 3.4023 2.3125 5.582 2.3125 2.1797 0 4.1523-0.88281 5.582-2.3125 1.0312-1.0312 1.7812-2.3516 2.1172-3.8281h10.203c1.0938 0 2.0742-0.50391 2.7773-1.3203 0.66406-0.76562 1.0742-1.8125 1.0742-2.9492v-15.434c0-1.0898-0.10937-2.2578-0.46094-3.2852-0.40234-1.1836-1.1133-2.1719-2.3008-2.6836l-7.6797-3.2969-7.3516-9.3516-0.003906 0.003906-0.003907-0.003906c-1.8867-2.3828-3.2812-3.9883-5.0586-5.0391-1.8164-1.0742-3.9023-1.5156-7.1055-1.5156h-7.1094v-2.8633zm-22.566-2.3984h-13.883v-4.0391c0-0.42188 0.19141-0.80859 0.49609-1.0898 0.32813-0.30469 0.78906-0.49609 1.3008-0.49609h12.086zm2.3945-5.6211h12.086c0.51172 0 0.97266 0.19141 1.3008 0.49609 0.30469 0.28516 0.49609 0.67188 0.49609 1.0898v4.0391h-13.883z" fill-rule="evenodd"/>
</svg>