<svg xmlns="http://www.w3.org/2000/svg" version="1.1" viewBox="-5.0 -10.0 110.0 135.0">
 <path d="m99.477 60.105c0.078126-1.6094-0.046874-3.2891-0.042968-4.5977 0.003906-0.027343 0.027344-0.042968 0.027344-0.070312 0.011718-0.20703-0.011719-0.39062-0.007813-0.58984 0.003906-0.082031 0-0.1875 0.007813-0.26562 0-0.125-0.015626-0.23047-0.015626-0.35156-0.007812-0.38281-0.015624-0.76562-0.054687-1.1289-0.23828-2.8008-1.2617-4.6602-2.8008-5.918-0.18359-0.16406-0.39062-0.30859-0.58984-0.45703-0.046875-0.03125-0.089844-0.066406-0.13672-0.09375-1.2266-0.88281-2.7344-1.5195-4.5781-1.8125-0.15234-0.03125-0.30078 0-0.44141 0.054688-3.0742-0.55859-6.5742-0.64844-9.8359-1.1172-1.7031-0.29687-3.3164-0.71094-4.6133-1.2188v-1.9414c0-1.4375-1.1797-2.625-2.625-2.625-0.83594 0.058594-2.2109-0.09375-3.3203 0.11719l-8.5625-7.2812c-3.1523-2.6836-6.9844-3.625-11.07-3.625l-20.383-0.007813c-9.7305-0.4375-14.836 6.4414-20.508 13.184-2.1484 3.1016-9.4062 4.9258-9.4258 9.7148v3.4023 2.8867 3.707c0 0.28125 0.007812 0.55859 0 0.76172 0.003906 1.4805 0.64062 2.7969 1.6445 3.7422 1.0039 0.94531 2.375 1.5195 3.8516 1.5156h1.5508c0.5625 0.023437 1.1172 0.046875 1.6016 0.023437 0.85547 3.5508 3.6992 6.6055 8.6094 6.7305 4.9062-0.085938 7.7461-3.168 8.5859-6.7539h45.207c0.84766 3.5625 3.6953 6.625 8.6133 6.7539 4.9062-0.085938 7.7461-3.168 8.5859-6.7539h1.4023c1.0586 0.027344 2.2266 0.0625 3.3672 0h0.43359c0.97266 0.011718 1.8516-0.23828 2.6172-0.65234 0.28516-0.13281 0.54297-0.29688 0.77734-0.48438 0.011719-0.007813 0.023438-0.019531 0.035156-0.027344 0.14844-0.12109 0.32031-0.22266 0.44141-0.36719 0.66797-0.48828 1.0664-1.25 1.3125-2.1406 0.26562-0.72266 0.37891-1.5039 0.33984-2.3125zm-2.0312 2.1797c-0.16797 0.34375-0.34766 0.68359-0.60937 0.95703-0.019532 0.015624-0.03125 0.042968-0.050782 0.058593-0.3125 0.31641-0.69531 0.55859-1.1016 0.75391-0.14844 0.058593-0.29297 0.11719-0.45703 0.16406-0.24609 0.082031-0.51172 0.12109-0.77734 0.15234-0.27344 0.039062-0.55078 0.078125-0.84375 0.097656h-3.0078c-0.58594-0.023438-1.1289-0.039062-1.5977-0.035156 0.082031-1.3594-0.09375-2.7344-0.56641-4.0078h9.4023c0.019531 0.21875-0.0625 0.41016-0.082032 0.62109-0.066406 0.46094-0.16797 0.87109-0.30859 1.2383zm-3.6055-8.0234c-3.3164-1.1641-3.418-4.6289-2.2578-7.668 0.23438 0.058594 0.46484 0.12109 0.69141 0.1875 0.45312 0.12891 0.86328 0.29297 1.2617 0.46484 0.49609 0.21484 0.95703 0.46875 1.3828 0.76562 0.375 0.26562 0.72266 0.55469 1.0195 0.87891 0.16406 0.17188 0.34766 0.32422 0.49219 0.51953 0.40625 0.56641 0.70703 1.2227 0.93359 1.9492 0.058594 0.17969 0.10938 0.36719 0.15625 0.5625 0.19531 0.82812 0.32031 1.7227 0.31641 2.75v0.027344c-1.6094 0.10156-2.9453-0.058594-3.9961-0.4375zm-3.8438-7.9883c-0.55078 1.5508-0.82031 3.2461-0.66016 4.5312 0.48828 4.3047 4.3828 5.7617 8.4883 5.4961 0.027343 0.76562 0.058593 1.625 0.066406 2.5l-10.266 0.003907c-1.418-2.2656-3.8867-3.918-7.4531-3.9805-3.5664 0.089843-6.0391 1.7344-7.4648 3.9805h-16.289v-12.758h14.898c1.4766 0.12891 3.1641-0.097656 4.2656 0 0.44531 0 0.8125-0.36328 0.8125-0.8125v-0.88672c3.9219 1.5312 9.2344 1.2305 13.602 1.9258zm-53.969-13.145h11.941c4.0234 2.1211 6.9297 5.793 6.8242 10.504v0.79297c-6.0977 0.019531-12.816 0.039063-18.766 0.042969zm-1.625 11.344c-8.3672 0-14.84-0.039062-15.137-0.16797-0.28906-0.13281-0.55469-0.46484-0.59766-0.78125 0.5625-2.7227 2.9219-5.3242 5.4102-7.4102 2.2383-1.7734 4.7969-2.9844 7.0664-2.9844h3.2617zm27.719-11.344 6.8359 5.8125c-0.92969 1.0117-0.55469 3.2891-0.64453 4.4805 0.007812 0.38281 0.09375 0.6875 0.19922 0.96875-3.0781 0.003906-7.3398 0.015625-12.098 0.03125v-0.78906c0.082032-4.3711-2.1172-8.0156-5.4492-10.504zm-7.3281 12.918v12.758h-18.766v-12.758zm19.68-6.1602c0.57422 0.33984 0.19141 3.9805 0.29297 4.5352h-1.3281c-0.11328-0.019531-1.0391-0.027344-2.5742-0.03125-0.51172-0.042969-0.92578-0.44922-0.92969-0.96875 0.16016-0.9375-0.58594-3.875 1-3.832 0.55078 0.097656 3.1758-0.25781 3.5391 0.29688zm-70.633 7.1641c3.0117-1.832 5.3359-3.6992 7.2148-5.5391 3.9258-3.7578 6.1016-8.6484 11.062-10.855 5.2266-3.2109 22.711-1.4336 28.695-1.8594 3.4219 0.003906 6.5391 0.73828 9.2422 2.707h-28.914c-2.6523 0-5.5664 1.3555-8.0703 3.3398-2.6875 2.3125-8.8477 8.4102-4.4375 10.949 0.36328 0.16406 0.76172 0.25 1.1797 0.25h14.594v12.758h-9.1875c-1.418-2.2656-3.8906-3.918-7.4531-3.9805-3.5625 0.089844-6.0391 1.7344-7.4648 3.9805h-8.1758v-1.5898c0.94531 0.015624 2.1367-0.11719 3.0781-0.039063 2.0312 0.16797 2.6602-4.3125 3.3867-5.668 0.44531-1.1875-0.80078-2.2578-1.9219-2.2461l-4.4414 0.003907c0.20703-0.91797 0.75781-1.6758 1.6133-2.2109zm5.0625 17.379c-0.60938-0.007813-1.3086 0.039062-1.9648 0.054687-1.0312-0.039063-2.0312-0.18359-2.8594-0.56641-0.77344-0.43359-1.4141-1.0742-1.7305-1.8984-0.019531-0.0625-0.023437-0.14844-0.039062-0.21484-0.13672-0.43359-0.22656-0.89063-0.18359-1.3789l7.3516 0.003907c-0.48047 1.2695-0.66016 2.6406-0.57422 4zm-2.2344-13.543c0.125 0.015625 0.29297 0.0625 0.37109 0.15625-0.25 0.44141-1.3945 4.3359-1.8359 4.5117h-3.0781v-4.668zm5.8711 18.168c-1.1523-1.1875-1.7773-2.4727-2.043-3.75 0-0.011719 0.007812-0.015626 0.007812-0.027344 0.011719-0.17188-0.03125-0.30859-0.10938-0.42188-0.82422-6.0508 6.9492-11.719 12.59-6.2539 6.7539 6.9805-3.4688 17.207-10.445 10.453zm14.051-4.5859c0.085937-1.3711-0.085938-2.7578-0.5625-4.0391h45.859c-0.48438 1.2852-0.66016 2.668-0.57422 4.0391zm48.355 4.5859c-6.7578-6.9648 3.4766-17.203 10.445-10.449 6.7539 6.9766-3.4648 17.203-10.445 10.449zm-57.184-9.5117c-5.6328 0.097656-5.6406 8.4766 0 8.5781 5.6055-0.03125 5.6094-8.5469 0-8.5781zm-1.8867 6.1758c-2.457-2.4688 1.2969-6.2266 3.7695-3.7734 2.457 2.4766-1.293 6.2266-3.7695 3.7734zm64.293-6.1758c-5.6328 0.097656-5.6406 8.4766 0 8.5781 5.6094-0.03125 5.6094-8.5469 0-8.5781zm-1.8828 6.1758c-2.457-2.4688 1.2969-6.2266 3.7695-3.7734 2.457 2.4766-1.2969 6.2266-3.7695 3.7734zm-39.887-17.195c1.3203 0.14453 4.0312-0.50781 3.9648 0.8125 0.070313 1.3203-2.6445 0.66797-3.9648 0.8125-1.0508 0.015624-1.0508-1.6367 0-1.625zm25.688 0.8125c0.070312 1.3203-2.6445 0.66797-3.9648 0.8125-1.0508 0.015624-1.0547-1.6367 0-1.625 1.3203 0.14844 4.0312-0.50781 3.9648 0.8125z" fill-rule="evenodd"/>
</svg>