<svg width="17" height="13" viewBox="0 0 17 13" fill="none" xmlns="http://www.w3.org/2000/svg">
<g clip-path="url(#clip0_206_1289)">
<path d="M0 9H17V13H0V9Z" fill="#1EB53A"/>
<path d="M0 0H17V4H0V0Z" fill="#0099B5"/>
<path d="M0 4H17V9H0V4Z" fill="#CE1126"/>
<path d="M0 4H17V8H0V4Z" fill="white"/>
<path d="M3.5 4C4.32843 4 5 3.32843 5 2.5C5 1.67157 4.32843 1 3.5 1C2.67157 1 2 1.67157 2 2.5C2 3.32843 2.67157 4 3.5 4Z" fill="white"/>
<path d="M4.5 4C5.32843 4 6 3.32843 6 2.5C6 1.67157 5.32843 1 4.5 1C3.67157 1 3 1.67157 3 2.5C3 3.32843 3.67157 4 4.5 4Z" fill="#0099B5"/>
<path d="M7.99994 3.00003L7.19306 3.26947L7.0514 3.31678" fill="white"/>
<path d="M8.00006 2.99997L7.19306 3.26947L7.05158 3.3167" fill="white"/>
<path d="M6.99994 2.999L7.81884 3.22981L7.96241 3.27027" fill="white"/>
<path d="M7.00006 2.99905L7.81884 3.22981L7.96259 3.27034" fill="white"/>
<path d="M7.99898 3.99905L7.45302 3.3466L7.35717 3.23219" fill="white"/>
<path d="M7.99907 3.999L7.45302 3.3466L7.3573 3.23211" fill="white"/>
<path d="M6.99898 3.999L7.53219 3.33678L7.62566 3.22056" fill="white"/>
<path d="M6.99905 3.99907L7.53219 3.33678L7.62577 3.22067" fill="white"/>
<path d="M7.99994 2.00003L7.19276 2.26858L7.05105 2.31574" fill="white"/>
<path d="M8.00006 1.99997L7.19276 2.26858L7.05123 2.31566" fill="white"/>
<path d="M6.99994 1.999L7.81894 2.22947L7.96252 2.26986" fill="white"/>
<path d="M7.00006 1.99905L7.81894 2.22947L7.96271 2.26994" fill="white"/>
<path d="M7.99996 3.00003L7.45348 2.34801L7.35754 2.23367" fill="white"/>
<path d="M8.00005 2.99998L7.45348 2.34801L7.35767 2.2336" fill="white"/>
<path d="M6.99996 2.99997L7.5334 2.33724L7.62692 2.22093" fill="white"/>
<path d="M7.00003 3.00005L7.5334 2.33724L7.62703 2.22104" fill="white"/>
<path d="M7.99994 1.00003L7.19261 1.26813L7.05088 1.31522" fill="white"/>
<path d="M8.00006 0.999974L7.19261 1.26813L7.05106 1.31514" fill="white"/>
<path d="M6.99994 0.999L7.81892 1.22956L7.96249 1.26997" fill="white"/>
<path d="M7.00006 0.999047L7.81892 1.22956L7.96268 1.27004" fill="white"/>
<path d="M7.99997 2.00004L7.45363 1.34789L7.35773 1.23355" fill="white"/>
<path d="M8.00004 1.99997L7.45363 1.34789L7.35784 1.23344" fill="white"/>
<path d="M6.99996 1.99997L7.53313 1.33702L7.6266 1.22067" fill="white"/>
<path d="M7.00003 2.00005L7.53313 1.33702L7.62671 1.22078" fill="white"/>
<path d="M8.99994 3.00003L8.19306 3.26947L8.0514 3.31678" fill="white"/>
<path d="M9.00006 2.99997L8.19306 3.26947L8.05158 3.3167" fill="white"/>
<path d="M7.99994 2.999L8.81884 3.22982L8.96241 3.27027" fill="white"/>
<path d="M8.00006 2.99905L8.81884 3.22982L8.96259 3.27034" fill="white"/>
<path d="M8.99995 3.99903L8.45396 3.34663L8.35809 3.2322" fill="white"/>
<path d="M9.00006 3.99902L8.45396 3.34663L8.35825 3.23217" fill="white"/>
<path d="M7.99996 3.999L8.53357 3.3364L8.62711 3.2201" fill="white"/>
<path d="M8.00003 3.99907L8.53357 3.3364L8.62722 3.22022" fill="white"/>
<path d="M8.99994 2.00003L8.19276 2.26858L8.05105 2.31574" fill="white"/>
<path d="M9.00006 1.99997L8.19276 2.26858L8.05123 2.31566" fill="white"/>
<path d="M7.99994 1.99998L8.81894 2.23045L8.96252 2.27084" fill="white"/>
<path d="M8.00006 2.00002L8.81894 2.23045L8.96271 2.27091" fill="white"/>
<path d="M9.00093 3.00002L8.45446 2.34801L8.3585 2.23366" fill="white"/>
<path d="M9.00102 2.99998L8.45446 2.34801L8.35865 2.2336" fill="white"/>
<path d="M8.00093 2.99997L8.53442 2.33728L8.62795 2.22097" fill="white"/>
<path d="M8.001 3.00005L8.53442 2.33728L8.62805 2.22108" fill="white"/>
<path d="M8.99994 1.00003L8.19261 1.26813L8.05088 1.31522" fill="white"/>
<path d="M9.00006 0.999974L8.19261 1.26813L8.05106 1.31514" fill="white"/>
<path d="M7.99994 0.999976L8.81892 1.23054L8.96249 1.27094" fill="white"/>
<path d="M8.00006 1.00002L8.81892 1.23054L8.96268 1.27102" fill="white"/>
<path d="M8.99997 2.00004L8.45363 1.34789L8.35773 1.23355" fill="white"/>
<path d="M9.00004 1.99997L8.45363 1.34789L8.35784 1.23344" fill="white"/>
<path d="M7.99996 1.99997L8.53333 1.33718L8.62683 1.22085" fill="white"/>
<path d="M8.00003 2.00005L8.53333 1.33718L8.62693 1.22097" fill="white"/>
<path d="M9.99994 3.00003L9.19306 3.26947L9.0514 3.31678" fill="white"/>
<path d="M10.0001 2.99997L9.19306 3.26947L9.05158 3.3167" fill="white"/>
<path d="M8.99994 2.999L9.81884 3.22982L9.96241 3.27027" fill="white"/>
<path d="M9.00006 2.99905L9.81884 3.22982L9.96259 3.27034" fill="white"/>
<path d="M9.99995 3.99903L9.45396 3.34663L9.35809 3.2322" fill="white"/>
<path d="M10.0001 3.99902L9.45396 3.34663L9.35825 3.23217" fill="white"/>
<path d="M8.99996 3.999L9.53357 3.3364L9.62711 3.2201" fill="white"/>
<path d="M9.00003 3.99907L9.53357 3.3364L9.62722 3.22022" fill="white"/>
<path d="M9.99994 2.00003L9.19276 2.26858L9.05105 2.31574" fill="white"/>
<path d="M10.0001 1.99997L9.19276 2.26858L9.05123 2.31566" fill="white"/>
<path d="M8.99994 1.99998L9.81894 2.23045L9.96252 2.27084" fill="white"/>
<path d="M9.00006 2.00002L9.81894 2.23045L9.96271 2.27091" fill="white"/>
<path d="M10.0009 3.00002L9.45446 2.34801L9.3585 2.23366" fill="white"/>
<path d="M10.001 2.99998L9.45446 2.34801L9.35865 2.2336" fill="white"/>
<path d="M9.00093 2.99997L9.53442 2.33728L9.62795 2.22097" fill="white"/>
<path d="M9.001 3.00005L9.53442 2.33728L9.62805 2.22108" fill="white"/>
<path d="M9.99994 1.00003L9.19261 1.26813L9.05088 1.31522" fill="white"/>
<path d="M10.0001 0.999974L9.19261 1.26813L9.05106 1.31514" fill="white"/>
<path d="M8.99994 0.999976L9.81892 1.23054L9.96249 1.27094" fill="white"/>
<path d="M9.00006 1.00002L9.81892 1.23054L9.96268 1.27102" fill="white"/>
<path d="M9.99997 2.00004L9.45363 1.34789L9.35773 1.23355" fill="white"/>
<path d="M10 1.99997L9.45363 1.34789L9.35784 1.23344" fill="white"/>
<path d="M8.99996 1.99997L9.53333 1.33718L9.62683 1.22085" fill="white"/>
<path d="M9.00003 2.00005L9.53333 1.33718L9.62693 1.22097" fill="white"/>
<path d="M4.99994 2.99905L4.19278 3.26767L4.05108 3.31485" fill="white"/>
<path d="M5.00006 2.99997L4.19278 3.26865L4.05126 3.31574" fill="white"/>
<path d="M3.99994 2.99998L4.81887 3.2307L4.96244 3.27114" fill="white"/>
<path d="M4.00006 3.00002L4.81887 3.2307L4.96262 3.27122" fill="white"/>
<path d="M4.99996 3.99905L4.45389 3.3467L4.35801 3.2323" fill="white"/>
<path d="M5.00004 3.99899L4.45389 3.3467L4.35814 3.23221" fill="white"/>
<path d="M3.99996 3.99802L4.53328 3.33578L4.62677 3.21955" fill="white"/>
<path d="M4.00003 3.99907L4.53328 3.33675L4.62688 3.22064" fill="white"/>
<path d="M5.99994 2.99905L5.19278 3.26766L5.05107 3.31483" fill="white"/>
<path d="M6.00006 2.99997L5.19278 3.26864L5.05126 3.31573" fill="white"/>
<path d="M4.99994 2.99998L5.81888 3.23067L5.96245 3.27111" fill="white"/>
<path d="M5.00006 3.00002L5.81888 3.23067L5.96263 3.27118" fill="white"/>
<path d="M5.99996 4.00003L5.45382 3.34773L5.35794 3.23334" fill="white"/>
<path d="M6.00005 3.99998L5.45382 3.34773L5.35807 3.23326" fill="white"/>
<path d="M4.99996 3.99997L5.53318 3.33771L5.62665 3.22147" fill="white"/>
<path d="M5.00003 4.00005L5.53318 3.33771L5.62676 3.22159" fill="white"/>
<path d="M5.99994 1.99905L5.19274 2.26755L5.05103 2.3147" fill="white"/>
<path d="M6.00006 1.99997L5.19274 2.26852L5.05121 2.31559" fill="white"/>
<path d="M4.99994 1.99998L5.81891 2.23054L5.96249 2.27095" fill="white"/>
<path d="M5.00006 2.00002L5.81891 2.23054L5.96268 2.27103" fill="white"/>
<path d="M5.99996 2.99905L5.45364 2.3469L5.35773 2.23253" fill="white"/>
<path d="M6.00004 2.99899L5.45364 2.3469L5.35785 2.23245" fill="white"/>
<path d="M4.99996 2.999L5.53332 2.3362L5.62682 2.21987" fill="white"/>
<path d="M5.00003 2.99907L5.53332 2.3362L5.62693 2.21999" fill="white"/>
</g>
<defs>
<clipPath id="clip0_206_1289">
<rect width="17" height="13" fill="white"/>
</clipPath>
</defs>
</svg>
