<svg width="34" height="10" viewBox="0 0 34 10" fill="none" xmlns="http://www.w3.org/2000/svg">
<path d="M18.0036 3.19688C17.9847 4.58993 19.3265 5.36725 20.3373 5.82946C21.3758 6.30365 21.7246 6.60776 21.7205 7.03186C21.7127 7.68084 20.8921 7.96729 20.1242 7.97842C18.7845 7.9979 18.0055 7.63899 17.3862 7.36754L16.9036 9.48674C17.5249 9.75541 18.6754 9.98972 19.8685 10C22.6689 10 24.5011 8.70276 24.511 6.69146C24.522 4.13884 20.7485 3.99756 20.7743 2.85661C20.7832 2.51064 21.135 2.14146 21.9058 2.04759C22.2874 2.00017 23.3407 1.96388 24.5349 2.47992L25.0036 0.429549C24.3614 0.210117 23.536 0 22.5083 0C19.8725 0 18.0185 1.3149 18.0036 3.19688ZM29.5073 0.17661C28.9959 0.17661 28.565 0.456525 28.3727 0.886074L24.3723 9.8494H27.1707L27.7276 8.40519H31.1472L31.4703 9.8494H33.9368L31.7844 0.17661H29.5073ZM29.8988 2.78959L30.7064 6.42183H28.4946L29.8988 2.78959ZM14.6106 0.176731L12.4048 9.84928H15.0715L17.2763 0.176489H14.6106M10.6657 0.176489L7.8901 6.76029L6.76733 1.16236C6.63558 0.537451 6.11532 0.17661 5.53756 0.17661H1.00032L0.936768 0.457492C1.86824 0.647166 2.92656 0.953089 3.56774 1.28042C3.96013 1.48038 4.07203 1.65518 4.20093 2.13033L6.3275 9.8494H9.14552L13.4659 0.17661L10.6657 0.176489Z" fill="#1A0290"/>
</svg>
